<svg xmlns="http://www.w3.org/2000/svg">
    <symbol id="icon-header-logo" viewBox="0 0 957 484">
        <g>
            <path
                fill="currentColor"
                d="M722.5,301.8c0.2,0,0.4-0.2,0.4-0.4c0-0.2-0.1-0.3-0.3-0.4h0c-7.7-1.1-14.7-3.6-21-7.6 c-14.1-9-25.2-26.2-34.6-54.8c-1.2-3.8-48.3-163.8-51.3-174.2c-10.7-36.5-30.9-52.8-49.5-59.7c-9.6-3.5-18.7-4.6-26-4.6 c-4.1,0-13,0-13,0c-0.2,0-0.4,0.2-0.4,0.4c0,0.2,0.1,0.3,0.3,0.4v0c5.2,0.7,10.8,2.1,16.4,4.5c17.3,7.3,35.3,23.7,45.7,59 c2.3,7.9,49.7,169.1,50.7,172.3c9.6,29.9,20.9,47.7,35.3,56.9c9.2,5.8,19.6,8.3,31.7,8.3H722.5z">
            </path>
            <path
                fill="currentColor"
                d="M764.1,301.8c0.2,0,0.4-0.2,0.4-0.4c0-0.2-0.1-0.3-0.3-0.4l0,0c-21.1-2.7-34.8-32.4-42.3-57.6 c-7.9-26.5-36.5-123.2-53.5-179.1C651.3,8.2,598.1,0.1,574,0.1l0,0c-0.2,0-0.4,0.2-0.4,0.4c0,0.2,0.1,0.3,0.3,0.4l0,0 c22.5,3,54.4,16.6,68.2,63.5c12.1,41.2,50.5,171.9,52,176.3c9.2,27.3,20.1,43.8,33.7,52.7c9.2,6,19.7,8.5,32,8.5H764.1z">
            </path>
            <path
                fill="currentColor"
                d="M210.3,484.7c-2.7,0-5.1,0-6.5,0c-19.2,0-42.3-9.8-55-54.6L34.3,39.2C27.5,15.7,17.4,4,0.3,1l0,0 C0.1,1,0,0.9,0,0.7c0-0.2,0.2-0.4,0.4-0.4h0.2h17c22.9,0,35.4,11.5,43.3,38.9c0,0,105.9,359.4,115.5,393.3 c7.1,25.1,15.4,42.2,28.3,49.1c2.1,1.1,3.8,1.8,5.6,2.3h0c0.2,0,0.3,0.2,0.3,0.4C210.7,484.5,210.5,484.7,210.3,484.7z">
            </path>
            <g>
                <path
                    fill="currentColor"
                    d="M171.5,53.8C160.6,15.9,143.4,0,111.7,0H96.3c-0.2,0-0.4,0.2-0.4,0.4c0,0.2,0.1,0.3,0.3,0.4l0,0 c24.7,3.5,39.1,19.8,48.7,53c0,0,94.8,322.8,107.1,365c2.7-9.1,7.3-24.6,13-44C253.7,336,171.5,53.8,171.5,53.8z">
                </path>
            </g>
            <path
                fill="currentColor"
                d="M219.2,484.7h11.3c14.1,0,24.2-3.7,31.8-9.9c12.3-10,17.9-26.6,23.1-44C286.1,428.2,386.4,88,390,74.7 c11.9-44.9,38.7-64.5,67.2-71.4c4.7-1.2,9.5-2,14.3-2.5l0,0c0.2,0,0.3-0.2,0.3-0.4c0-0.2-0.2-0.4-0.4-0.4h-12.5 c-37.6,0-79.5,14.9-95.4,74.6c-5.7,21.5-103.9,353.5-104.6,356.1c-5.2,17.4-11.1,35.8-23.4,45.8c-5,4.1-9.6,6.3-16.2,7.3h0 c-0.2,0-0.3,0.2-0.3,0.4C218.8,484.5,219,484.7,219.2,484.7L219.2,484.7z">
            </path>
            <path
                fill="currentColor" 
                d="M734.5,250.5l59-196.7c9.6-33.2,24-49.5,48.7-53h0c0.2,0,0.3-0.2,0.3-0.4c0-0.2-0.2-0.4-0.4-0.4h-15.4 c-31.6,0-48.8,15.8-59.8,53.7l-45.6,153.3C721.3,207.1,733.4,247.3,734.5,250.5z">
            </path>
            <path
                fill="#0A9578"
                d="M889.8,0.3h-16.4c-26.9,0-41.5,13.5-50.9,45.7c0,0-58.4,195.2-58.9,196.9c-4.3,13.8-9.7,27.2-15.1,35.8 c5.1,7,10.6,11.4,15.9,12.4c10.1-8.7,18.6-24.8,26.1-49.3c0.4-1.3,58.6-195.8,58.6-195.8c8.1-27.9,20.1-41.8,40.7-45h0 c0.2,0,0.3-0.2,0.3-0.4C890.2,0.5,890,0.3,889.8,0.3z">
            </path>
            <path
                fill="currentColor"
                d="M770.2,311.6h-26.4c-12,39.6-27.9,92.1-33.8,111.8c-16.4,55.1,9.5,60.7,19.4,60.7c1.3,0,13.3,0,20.9,0h0 c0.2,0,0.4-0.2,0.4-0.4c0-0.2-0.1-0.3-0.3-0.4h0c-11.3-2.7-26.7-14.4-13.1-60C737.2,423.5,761.2,342.3,770.2,311.6z">
            </path>
            <path
                fill="currentColor"
                d="M924.7,0.7c0.1,0,0.3-0.2,0.3-0.4c0-0.2-0.2-0.4-0.4-0.4v0l-3.7,0c-22.9,0-35.4,11.5-43.3,38.9 c0,0-45.1,151.9-59.3,198.9c-14.2,47.1-23.9,59.7-43.2,63l-1,0.2c-0.2,0-0.3,0.2-0.3,0.4c0,0.2,0.2,0.4,0.4,0.4h13.1 c33.6,0,46.1-22.4,57.9-61.8c9.9-33,67.8-226.5,67.8-226.5C914.6,8,919.3,2.4,924.7,0.7L924.7,0.7z">
            </path>
            <g>
                <path
                    fill="currentColor"
                    d="M796.8,311c-9.3,31.6-35.7,121.6-35.7,121.6c-14,46.8,8.1,51.6,16.5,51.6H798l0,0c0.2,0,0.4-0.2,0.4-0.4 c0-0.2-0.1-0.3-0.3-0.4l0,0c-9.6-2.5-22.1-12.7-10.7-50.9c0,0,29-98.2,40-135.7C821.1,303.3,810.4,309.2,796.8,311z">
                </path>
            </g>
            <path
                fill="currentColor"
                d="M846.6,484.2c0.2,0,0.4-0.2,0.4-0.4c0-0.2-0.1-0.3-0.3-0.4h0c-8.1-2.3-18.2-11.3-8.7-43.2 c0,0,112-381.2,118.3-402.8s-8.8-35.1-22.4-37.1c-0.1,0-0.5-0.1-0.6,0.2c-0.1,0.3,0.3,0.5,0.4,0.5c2.7,1.4,5.7,4.7,4.1,10.3 s-126,429-126,429c-11.9,39.8,6.9,43.9,14,43.9H846.6z">
            </path>
            <path
                fill="currentColor"
                d="M669.4,301.8c0.2,0,0.4-0.2,0.4-0.4c0-0.2-0.1-0.3-0.3-0.4h0c-7.6-1.1-14.5-3.5-20.8-7.5 c-14.8-9.4-26.3-27.6-36-58.6c-0.8-2.7-48.5-165-50.2-170.6C552.5,30,536.3,13.6,520.3,6c-9.7-4.6-19.3-5.9-27.5-5.9 c-5.3,0-10.1,0-14,0h-0.1c-0.2,0-0.4,0.2-0.4,0.4c0,0.2,0.1,0.3,0.3,0.4l0,0c2.6,0.4,39,1.5,57.3,63.5s40.3,136.2,47.7,162.3 c16,56.6,36.7,75.1,70,75.1H669.4z">
            </path>
            <path
                fill="currentColor"
                d="M500.8,21.4C500.8,21.4,500.8,21.4,500.8,21.4c-13.4,11.5-24.5,28.6-31.1,53.3C469,77.3,369.6,415.6,367.4,423 c-8.4,28.2-15.4,56.2-47,61v0c-0.2,0-0.3,0.2-0.3,0.4c0,0.2,0.2,0.4,0.4,0.4h1.6h4.7c0,0,4.5-0.1,5.4-0.1 c32.1-1.3,48.2-15,61.9-61.6c10-34.1,101.5-345.6,102.3-348.3c3.9-13,8.6-27.9,15.3-40.9C510.3,31.6,505.4,25.2,500.8,21.4z">
            </path>
            <g>
                <path
                    fill="#0A9578"
                    d="M485.9,12.7c-10.2-2.9-24.6-2.1-37.7,8.4c-13.1,10.5-24.8,28.3-30.8,50.9c-0.7,2.6-104.6,356.2-105.4,358.8 c-5.2,17.4-10.8,33.9-23.1,44c-5.6,4.6-12.6,7.8-21.5,9.2l0,0c-0.2,0-0.3,0.2-0.3,0.4c0,0.2,0.2,0.4,0.4,0.4h16.3 c14.1,0,24.2-3.7,31.8-9.9c12.3-10,17.9-26.6,23.1-44c0.8-2.6,103.9-353.5,104.6-356.1c6.6-24.7,17.7-41.8,31-53.3 c3.9-3.3,7.9-6.2,12.1-8.6C486.2,12.8,486.1,12.8,485.9,12.7z">
                </path>
            </g>
            <path
                fill="currentColor"
                d="M239.8,454.4c-4.6-6.7-8.5-14.7-11.2-24.3C224.7,416.1,116.1,46,116.1,46c-9.3-32.2-24-45.7-50.9-45.7H48.8 c-0.2,0-0.4,0.2-0.4,0.4c0,0.2,0.1,0.3,0.3,0.4c20.6,3.2,32.6,17,40.7,45L202,430.1c5.8,20.5,13.8,33.7,22.6,42 C230.9,468.4,236.2,462.6,239.8,454.4z">
            </path>
        </g>
    </symbol>
    <symbol id="icon-geo" viewBox="0 0 32 32" fill="none" xmlns="http://www.w3.org/2000/svg">
        <path
                d="M24.332 17.88C23.284 20.004 21.864 22.12 20.412 24.02C19.0346 25.8112 17.5618 27.527 16 29.16C14.4382 27.5271 12.9654 25.8113 11.588 24.02C10.136 22.12 8.716 20.004 7.668 17.88C6.608 15.734 6 13.724 6 12C6 9.34784 7.05357 6.8043 8.92893 4.92893C10.8043 3.05357 13.3478 2 16 2C18.6522 2 21.1957 3.05357 23.0711 4.92893C24.9464 6.8043 26 9.34784 26 12C26 13.724 25.39 15.734 24.332 17.88ZM16 32C16 32 28 20.628 28 12C28 8.8174 26.7357 5.76516 24.4853 3.51472C22.2348 1.26428 19.1826 0 16 0C12.8174 0 9.76516 1.26428 7.51472 3.51472C5.26428 5.76516 4 8.8174 4 12C4 20.628 16 32 16 32Z"
                fill="currentColor"/>
        <path
                d="M16 16C14.9391 16 13.9217 15.5786 13.1716 14.8284C12.4214 14.0783 12 13.0609 12 12C12 10.9391 12.4214 9.92172 13.1716 9.17157C13.9217 8.42143 14.9391 8 16 8C17.0609 8 18.0783 8.42143 18.8284 9.17157C19.5786 9.92172 20 10.9391 20 12C20 13.0609 19.5786 14.0783 18.8284 14.8284C18.0783 15.5786 17.0609 16 16 16ZM16 18C17.5913 18 19.1174 17.3679 20.2426 16.2426C21.3679 15.1174 22 13.5913 22 12C22 10.4087 21.3679 8.88258 20.2426 7.75736C19.1174 6.63214 17.5913 6 16 6C14.4087 6 12.8826 6.63214 11.7574 7.75736C10.6321 8.88258 10 10.4087 10 12C10 13.5913 10.6321 15.1174 11.7574 16.2426C12.8826 17.3679 14.4087 18 16 18Z"
                fill="currentColor"/>
    </symbol>

    <symbol id="icon-search" viewBox="0 0 32 32" fill="none" xmlns="http://www.w3.org/2000/svg">
        <path
                d="M14.6667 8C18.3485 8 21.3333 10.9848 21.3333 14.6667M22.2117 22.2065L28 28M25.3333 14.6667C25.3333 20.5577 20.5577 25.3333 14.6667 25.3333C8.77563 25.3333 4 20.5577 4 14.6667C4 8.77563 8.77563 4 14.6667 4C20.5577 4 25.3333 8.77563 25.3333 14.6667Z"
                stroke="currentColor" stroke-width="2.5" stroke-linecap="round" stroke-linejoin="round"/>
    </symbol>

    <symbol id="icon-burger" viewBox="0 0 32 32" fill="none" xmlns="http://www.w3.org/2000/svg">
        <path fill-rule="evenodd" clip-rule="evenodd"
              d="M0 8C0 7.44772 0.397969 7 0.888889 7H31.1111C31.602 7 32 7.44772 32 8C32 8.55228 31.602 9 31.1111 9H0.888889C0.397969 9 0 8.55228 0 8Z"
              fill="currentColor"/>
        <path fill-rule="evenodd" clip-rule="evenodd"
              d="M4 16C4 15.4477 4.29848 15 4.66667 15H27.3333C27.7015 15 28 15.4477 28 16C28 16.5523 27.7015 17 27.3333 17H4.66667C4.29848 17 4 16.5523 4 16Z"
              fill="currentColor"/>
        <path fill-rule="evenodd" clip-rule="evenodd"
              d="M0 24C0 23.4477 0.397969 23 0.888889 23H31.1111C31.602 23 32 23.4477 32 24C32 24.5523 31.602 25 31.1111 25H0.888889C0.397969 25 0 24.5523 0 24Z"
              fill="currentColor"/>
    </symbol>

    <symbol id="icon-burger-close" viewBox="0 0 32 32" fill="none" xmlns="http://www.w3.org/2000/svg">
        <path fill-rule="evenodd" clip-rule="evenodd"
              d="M4.70711 27.7071C4.31658 27.3166 4.28141 26.7186 4.62854 26.3715L25.9989 5.00112C26.346 4.65399 26.944 4.68917 27.3345 5.07969C27.725 5.47021 27.7602 6.0682 27.4131 6.41534L6.04275 27.7857C5.69562 28.1328 5.09763 28.0976 4.70711 27.7071Z"
              fill="currentColor"/>
        <path fill-rule="evenodd" clip-rule="evenodd"
              d="M4.7072 4.70711C5.09772 4.31658 5.69571 4.28141 6.04285 4.62854L27.4132 25.9989C27.7603 26.346 27.7251 26.944 27.3346 27.3345C26.9441 27.725 26.3461 27.7602 25.999 27.4131L4.62863 6.04275C4.2815 5.69562 4.31668 5.09763 4.7072 4.70711Z"
              fill="currentColor"/>
    </symbol>
    <symbol id="icon-ok" viewBox="0 0 30 30" fill="none" xmlns="http://www.w3.org/2000/svg">
        <path
                d="M18.245 21.8005L22.7283 26.1288C23.6467 27.0135 23.6467 28.4503 22.7283 29.336C21.8108 30.2217 20.3237 30.2217 19.4072 29.336L14.9992 25.0828L10.595 29.336C10.1358 29.7784 9.53405 29.9998 8.93231 29.9998C8.33152 29.9998 7.73073 29.7784 7.27151 29.336C6.35402 28.4503 6.35402 27.0144 7.27055 26.1288L11.7544 21.8005C10.1219 21.4416 8.54746 20.8172 7.09732 19.9389C5.99988 19.271 5.67021 17.8716 6.36169 16.8113C7.05125 15.7497 8.50139 15.4301 9.60075 16.098C12.884 18.0916 17.1134 18.0921 20.3986 16.098C21.4979 15.4301 22.9476 15.7497 23.6386 16.8113C24.3301 17.8707 23.9994 19.271 22.902 19.9389C21.4519 20.8181 19.8774 21.4416 18.245 21.8005Z"
                fill="white"/>
        <path fill-rule="evenodd" clip-rule="evenodd"
              d="M6.95996 7.74204C6.95996 12.01 10.557 15.4818 14.9799 15.4818C19.4037 15.4818 22.9998 12.01 22.9998 7.74204C22.9998 3.47266 19.4037 0 14.9799 0C10.557 0 6.95996 3.47266 6.95996 7.74204ZM18.3004 7.74118C18.3004 5.97359 16.8109 4.53625 14.9797 4.53625C13.15 4.53625 11.6591 5.97359 11.6591 7.74118C11.6591 9.50739 13.15 10.9456 14.9797 10.9456C16.8109 10.9456 18.3004 9.50739 18.3004 7.74118Z"
              fill="white"/>
    </symbol>

    <symbol id="icon-youtube" viewBox="0 0 30 30" fill="none" xmlns="http://www.w3.org/2000/svg">
        <path fill-rule="evenodd" clip-rule="evenodd"
              d="M26.7206 4.62695C28.0115 4.97193 29.0281 5.98839 29.3731 7.27922C30 9.61869 30 14.5 30 14.5C30 14.5 30 19.3811 29.3731 21.7208C29.0281 23.0116 28.0115 24.0281 26.7206 24.3732C24.3813 25 15 25 15 25C15 25 5.61869 25 3.2792 24.3732C1.98835 24.0281 0.971761 23.0116 0.626761 21.7208C0 19.3811 0 14.5 0 14.5C0 14.5 0 9.61869 0.626761 7.27922C0.971761 5.98839 1.98835 4.97193 3.2792 4.62695C5.61869 4 15 4 15 4C15 4 24.3813 4 26.7206 4.62695ZM12.1875 10.3917V19.5221L19.6875 14.9571L12.1875 10.3917Z"
              fill="white"/>
    </symbol>

    <symbol id="icon-vk" viewBox="0 0 30 30" fill="none" xmlns="http://www.w3.org/2000/svg">
        <path
                d="M29.4887 5.36422C29.3577 4.12168 28.8041 2.96177 27.9205 2.07845C27.0368 1.19512 25.8767 0.641934 24.6342 0.511382C18.232 -0.175018 11.7749 -0.175018 5.37278 0.511382C4.12897 0.640465 2.96728 1.193 2.08227 2.07646C1.19726 2.95992 0.642685 4.12064 0.51142 5.36422C-0.172101 11.7693 -0.172101 18.229 0.51142 24.6341C0.643871 25.8763 1.19789 27.0355 2.08121 27.9189C2.96453 28.8022 4.12381 29.3562 5.36597 29.4886C11.7681 30.175 18.2252 30.175 24.6273 29.4886C25.8707 29.3577 27.0316 28.8043 27.9163 27.9208C28.801 27.0374 29.356 25.8773 29.4887 24.6341C30.1722 18.229 30.1722 11.7693 29.4887 5.36422ZM23.4768 20.3642C23.0404 20.4256 20.9063 20.3642 20.7955 20.3642C20.2425 20.3705 19.7094 20.1579 19.3126 19.7727C18.8626 19.3381 18.4603 18.8608 18.0205 18.4091C17.8909 18.2705 17.7501 18.1428 17.5995 18.0273C17.2484 17.758 16.9006 17.8193 16.7353 18.2335C16.6061 18.6811 16.516 19.1391 16.466 19.6023C16.437 20.0199 16.1711 20.2841 15.7006 20.3114C15.4091 20.3284 15.1177 20.3335 14.8296 20.3267C13.7796 20.3195 12.7463 20.0636 11.8143 19.5801C10.8057 19.0187 9.92692 18.2509 9.23528 17.3267C8.09835 15.8744 7.18983 14.279 6.37847 12.6341C6.33585 12.5506 5.50403 10.783 5.48358 10.6977C5.40858 10.4199 5.48358 10.1523 5.71369 10.0585C5.86028 10.0023 8.60119 10.0585 8.64722 10.0585C8.85107 10.0574 9.05002 10.121 9.21543 10.2402C9.38084 10.3593 9.50417 10.5279 9.56767 10.7216C10.0744 12.019 10.7681 13.2352 11.6268 14.3318C11.747 14.4779 11.8876 14.606 12.0444 14.7119C12.2677 14.8654 12.479 14.8125 12.5711 14.5534C12.6803 14.1963 12.7444 13.827 12.762 13.454C12.7773 12.7142 12.762 12.2284 12.7211 11.4887C12.6938 11.0148 12.5268 10.6006 11.8279 10.4659C11.6131 10.4267 11.5944 10.2494 11.7324 10.0722C12.0205 9.7057 12.4143 9.64604 12.8557 9.62559C13.5137 9.58638 14.1716 9.61195 14.8296 9.62559H14.9728C15.2591 9.62313 15.5449 9.65171 15.8251 9.71081C15.9906 9.74516 16.1408 9.83178 16.2534 9.95791C16.366 10.084 16.4352 10.243 16.4506 10.4114C16.4845 10.598 16.4988 10.7877 16.4932 10.9773C16.4762 11.7835 16.437 12.5915 16.4285 13.3977C16.4205 13.7176 16.4497 14.0374 16.5154 14.3506C16.6091 14.7818 16.904 14.8875 17.1972 14.5773C17.5772 14.1777 17.9254 13.7492 18.2387 13.2955C18.7937 12.4667 19.2512 11.5768 19.6023 10.6432C19.7932 10.1642 19.9432 10.0585 20.4546 10.0585H23.3626C23.5355 10.0555 23.7078 10.0785 23.8739 10.1267C23.9327 10.1422 23.9877 10.1696 24.0354 10.2073C24.0831 10.2449 24.1225 10.292 24.1511 10.3456C24.1797 10.3993 24.197 10.4582 24.2018 10.5188C24.2066 10.5794 24.1989 10.6403 24.179 10.6977C24.0359 11.3369 23.6915 11.879 23.3268 12.4023C22.7353 13.2392 22.1114 14.0557 21.5063 14.8824C21.4294 14.9916 21.3594 15.1054 21.2966 15.2233C21.0682 15.6341 21.0853 15.8642 21.416 16.2051C21.9444 16.7489 22.5086 17.2568 23.0182 17.8159C23.3921 18.2227 23.7297 18.6613 24.0273 19.1267C24.4006 19.7063 24.1705 20.2585 23.4751 20.3574L23.4768 20.3642Z"
                fill="white"/>
    </symbol>

    <symbol id="icon-tg" viewBox="0 0 30 30" fill="none" xmlns="http://www.w3.org/2000/svg">
        <mask id="mask0_18_1112" style="mask-type:luminance" maskUnits="userSpaceOnUse" x="0" y="5"
              width="30" height="20">
            <path fill-rule="evenodd" clip-rule="evenodd" d="M0 5H30V25H0V5Z" fill="white"/>
        </mask>
        <g mask="url(#mask0_18_1112)">
            <path fill-rule="evenodd" clip-rule="evenodd"
                  d="M30 6.60691C29.8424 7.16614 29.6783 7.72425 29.5284 8.2848C28.5589 11.9097 27.5926 15.5352 26.6248 19.1604C26.208 20.7217 25.7943 22.2836 25.3678 23.8431C25.3123 24.0458 25.2136 24.2471 25.0917 24.4307C24.7657 24.9213 24.2289 25.1063 23.568 24.9407C23.2667 24.8652 22.9632 24.7548 22.7086 24.6072C20.5526 23.3573 18.4077 22.095 16.2592 20.8366C16.1814 20.7911 16.1017 20.7476 16.0089 20.6953C15.9376 20.744 15.8703 20.7858 15.8088 20.8326C14.6996 21.6782 13.5903 22.5237 12.483 23.371C12.1531 23.6233 11.7777 23.7752 11.2843 23.7524C11.3251 23.2643 11.3626 22.7919 11.4046 22.3198C11.4926 21.3312 11.5829 20.3428 11.6725 19.3543C11.6866 19.1987 11.7374 19.0393 11.7118 18.8882C11.6153 18.3182 12.0158 17.9878 12.505 17.639C16.4822 14.8024 20.4402 11.9486 24.404 9.09987C24.4621 9.05812 24.5374 9.02294 24.5717 8.97082C24.6345 8.87521 24.6726 8.76923 24.7211 8.66756C24.5873 8.6375 24.4393 8.56288 24.3226 8.58663C24.0821 8.63543 23.8409 8.71455 23.6302 8.81985C18.4638 11.4013 13.3012 13.9875 8.13906 16.5746C7.99406 16.6472 7.86959 16.6874 7.68344 16.6404C5.49344 16.0872 3.29851 15.5467 1.10866 14.993C0.843724 14.926 0.580036 14.8259 0.35336 14.6984C-0.0727417 14.4587 -0.124042 14.1077 0.257161 13.8243C0.536387 13.6167 0.874489 13.4325 1.22735 13.3203C3.07238 12.7337 4.92999 12.1726 6.78408 11.6042C13.8276 9.44538 20.8711 7.2865 27.9167 5.132C28.1408 5.06344 28.3852 5.01833 28.6242 5.00364C29.258 4.96477 29.7281 5.23917 29.9218 5.73204C29.9446 5.79009 29.9738 5.84664 30 5.90389V6.60691Z"
                  fill="white"/>
        </g>
    </symbol>

    <symbol id="icon-phone" viewBox="0 0 22 22" fill="none" xmlns="http://www.w3.org/2000/svg">
        <path
                d="M21.4193 16.0868L18.5966 13.264C17.8416 12.509 16.5989 12.4945 15.8266 13.2317L14.2498 14.7365C11.823 13.3743 8.62569 10.177 7.26345 7.75012L8.76831 6.17343C9.5055 5.40099 9.49096 4.15837 8.73598 3.40343L5.91323 0.580726C5.51196 0.179356 4.99978 -0.0205976 4.433 0.00167714C3.8659 0.024235 3.37156 0.264349 3.00341 0.696158L0.135973 4.05917C0.0504607 4.1595 0.00260784 4.28645 0.000672967 4.41826C-0.0231119 6.03025 0.583685 7.9134 1.80412 10.0153C2.89794 11.8992 4.43423 13.8531 6.24693 15.6658C9.31918 18.738 13.8738 22.0003 17.4938 22C17.523 22 17.5527 21.9998 17.5817 21.9993C17.7135 21.9974 17.8405 21.9495 17.9408 21.864L21.3038 18.9966C21.7356 18.6284 21.9757 18.1341 21.9983 17.567C22.0208 16.9999 21.8206 16.488 21.4193 16.0868ZM20.5689 18.1347L17.3662 20.8655C14.6623 20.7917 10.6444 18.4615 7.04783 14.8649C3.4473 11.2644 1.20195 7.37065 1.13423 4.63402L3.86533 1.43094C4.02758 1.24061 4.228 1.14326 4.47803 1.1333C4.72777 1.12424 4.93546 1.20451 5.11234 1.38148L7.93509 4.20424C8.25863 4.52779 8.26486 5.06035 7.94896 5.39136L6.16179 7.2639C5.99662 7.43695 5.95802 7.69509 6.06533 7.90892C7.46887 10.7057 11.2942 14.5311 14.091 15.9346C14.3047 16.0419 14.5629 16.0033 14.736 15.8381L16.6085 14.0509C16.9396 13.735 17.4721 13.7412 17.7957 14.0648L20.6184 16.8876C20.7954 17.0644 20.8765 17.272 20.8666 17.5219C20.8567 17.772 20.7593 17.9724 20.5689 18.1347Z"
                fill="white"/>
    </symbol>
</svg>